<?xml version="1.0" encoding="UTF-8"?>
<svg id="Playing_Cards" data-name="Playing Cards" xmlns="http://www.w3.org/2000/svg" viewBox="0 0 152.06 215.64">
  <defs>
    <style>
      .cls-1 {
        fill: #fff;
      }

      .cls-1, .cls-2 {
        fill-rule: evenodd;
      }

      .cls-2, .cls-3 {
        fill: #333;
      }
    </style>
  </defs>
  <g id="Cards">
    <g id="Clubs">
      <g>
        <g>
          <path class="cls-1" d="M6.47.03h138.97c.47,0,.95.06,1.41.17l.11.03c.98.25,1.88.74,2.61,1.44l.04.04c.48.46.87,1,1.17,1.59l.41.83c.29.58.48,1.2.56,1.84l.26,1.97c.03.25.05.5.05.75v198.38c0,.26-.02.52-.05.78l-.25,1.86c-.08.61-.26,1.2-.53,1.75l-.41.85c-.32.65-.75,1.24-1.28,1.73l-.05.04c-.67.62-1.48,1.07-2.36,1.32l-.2.06c-.51.14-1.04.22-1.57.22H6.56c-.53,0-1.06-.07-1.57-.22l-.14-.04c-.92-.26-1.76-.74-2.44-1.4h0c-.49-.48-.9-1.04-1.2-1.65l-.41-.84c-.29-.59-.47-1.23-.55-1.88l-.21-1.85c-.02-.22-.04-.43-.04-.65V8.62c0-.21.01-.42.03-.62l.21-1.96c.07-.68.27-1.35.58-1.97l.41-.82c.28-.56.64-1.06,1.08-1.5h0C3.06,1,3.99.47,5.01.22h.05c.46-.13.93-.19,1.41-.19Z"/>
          <path class="cls-3" d="M11.15,13.97c.62-1.46,1.39-2.58,2.33-3.37.94-.79,2.11-1.19,3.51-1.19,1.73,0,3.06.56,3.98,1.69.7.84,1.05,1.74,1.05,2.69,0,1.57-.99,3.2-2.96,4.88,1.33.52,2.33,1.26,3.01,2.23.68.97,1.02,2.1,1.02,3.41,0,1.87-.6,3.49-1.79,4.86-1.55,1.78-3.8,2.68-6.74,2.68-1.46,0-2.45-.18-2.97-.54-.53-.36-.79-.75-.79-1.16,0-.31.12-.58.37-.81.25-.23.55-.35.9-.35.27,0,.54.04.81.13.18.05.59.25,1.23.58.64.33,1.08.53,1.32.6.39.12.81.18,1.26.18,1.08,0,2.03-.42,2.83-1.26.8-.84,1.2-1.83,1.2-2.98,0-.84-.19-1.66-.56-2.45-.28-.59-.58-1.05-.91-1.35-.46-.42-1.08-.81-1.88-1.16-.8-.34-1.61-.52-2.44-.52h-.51v-.48c.84-.11,1.68-.41,2.53-.91.84-.5,1.46-1.1,1.84-1.8.38-.7.57-1.47.57-2.31,0-1.09-.34-1.98-1.03-2.65-.69-.67-1.54-1.01-2.56-1.01-1.65,0-3.02.88-4.13,2.65l-.53-.25Z"/>
          <path class="cls-3" d="M140.7,200.38c-.62,1.46-1.39,2.58-2.33,3.37-.94.79-2.11,1.19-3.51,1.19-1.73,0-3.06-.56-3.98-1.69-.7-.84-1.05-1.74-1.05-2.69,0-1.57.99-3.2,2.96-4.88-1.33-.52-2.33-1.26-3.01-2.23s-1.02-2.1-1.02-3.41c0-1.87.59-3.49,1.78-4.86,1.55-1.78,3.8-2.68,6.74-2.68,1.46,0,2.45.18,2.97.54.53.36.79.75.79,1.16,0,.31-.13.58-.37.81-.25.23-.55.35-.9.35-.27,0-.54-.04-.81-.13-.18-.05-.59-.25-1.23-.58-.64-.33-1.08-.53-1.32-.6-.39-.12-.81-.18-1.26-.18-1.08,0-2.03.42-2.83,1.26-.8.84-1.2,1.83-1.2,2.98,0,.84.19,1.66.56,2.45.28.59.58,1.05.91,1.35.46.42,1.08.81,1.88,1.16.8.34,1.61.52,2.44.52h.51v.48c-.84.11-1.68.41-2.53.91-.84.5-1.46,1.1-1.84,1.8-.38.7-.57,1.47-.57,2.31,0,1.09.34,1.98,1.03,2.65.69.67,1.54,1.01,2.56,1.01,1.65,0,3.02-.88,4.13-2.65l.53.25Z"/>
        </g>
        <path class="cls-2" d="M20.53,44.75c-.86,0-1.63.34-2.21.88l-.34-.36c1.04-.54,1.75-1.61,1.75-2.86,0-1.78-1.44-3.22-3.22-3.22s-3.22,1.44-3.22,3.22c0,1.25.72,2.34,1.76,2.87l-.35.35c-.58-.55-1.36-.89-2.22-.89-1.78,0-3.22,1.44-3.22,3.22s1.44,3.22,3.22,3.22,3.22-1.44,3.22-3.22c0-.02,0-.04,0-.06.4.38.87,1.57-.12,5.3h1.85c-.99-3.73-.52-4.92-.12-5.3,0,.02,0,.04,0,.06,0,1.78,1.44,3.22,3.22,3.22s3.22-1.44,3.22-3.22-1.44-3.22-3.22-3.22Z"/>
        <path class="cls-2" d="M131.54,170.76c.86,0,1.63-.34,2.21-.88l.34.36c-1.04.54-1.75,1.62-1.75,2.86,0,1.78,1.44,3.22,3.22,3.22s3.22-1.44,3.22-3.22c0-1.25-.72-2.34-1.76-2.87l.35-.35c.58.55,1.36.89,2.21.89,1.78,0,3.22-1.44,3.22-3.22s-1.44-3.22-3.22-3.22-3.22,1.44-3.22,3.22c0,.02,0,.04,0,.06-.4-.38-.87-1.57.12-5.3h-1.85c.99,3.73.52,4.92.12,5.3,0-.02,0-.04,0-.06,0-1.78-1.44-3.22-3.22-3.22s-3.22,1.44-3.22,3.22,1.44,3.22,3.22,3.22Z"/>
        <g>
          <path class="cls-2" d="M86.72,37.99c-2.22,0-4.22.87-5.72,2.28l-.88-.92c2.68-1.38,4.52-4.18,4.52-7.4,0-4.6-3.73-8.33-8.33-8.33s-8.33,3.73-8.33,8.33c0,3.24,1.85,6.04,4.56,7.42l-.91.91c-1.49-1.42-3.51-2.29-5.73-2.29-4.6,0-8.33,3.73-8.33,8.33s3.73,8.33,8.33,8.33,8.33-3.73,8.33-8.33c0-.06,0-.11,0-.16,1.04.98,2.25,4.05-.3,13.71h4.79c-2.55-9.65-1.34-12.72-.3-13.71,0,.05,0,.11,0,.16,0,4.6,3.73,8.33,8.33,8.33s8.33-3.73,8.33-8.33-3.73-8.33-8.33-8.33Z"/>
          <path class="cls-2" d="M86.72,166.58c-2.22,0-4.22.87-5.72,2.28l-.88-.92c2.68-1.38,4.52-4.18,4.52-7.4,0-4.6-3.73-8.33-8.33-8.33s-8.33,3.73-8.33,8.33c0,3.24,1.85,6.04,4.56,7.42l-.91.91c-1.49-1.42-3.51-2.29-5.73-2.29-4.6,0-8.33,3.73-8.33,8.33s3.73,8.33,8.33,8.33,8.33-3.73,8.33-8.33c0-.06,0-.11,0-.16,1.04.98,2.25,4.06-.3,13.71h4.79c-2.55-9.65-1.34-12.72-.3-13.71,0,.06,0,.11,0,.16,0,4.6,3.73,8.33,8.33,8.33s8.33-3.73,8.33-8.33-3.73-8.33-8.33-8.33Z"/>
          <path class="cls-2" d="M86.72,102.03c-2.22,0-4.22.87-5.72,2.28l-.88-.92c2.68-1.38,4.52-4.18,4.52-7.4,0-4.6-3.73-8.33-8.33-8.33s-8.33,3.73-8.33,8.33c0,3.24,1.85,6.04,4.56,7.42l-.91.91c-1.49-1.42-3.51-2.29-5.73-2.29-4.6,0-8.33,3.73-8.33,8.33s3.73,8.33,8.33,8.33,8.33-3.73,8.33-8.33c0-.06,0-.11,0-.16,1.04.98,2.25,4.05-.3,13.71h4.79c-2.55-9.65-1.34-12.72-.3-13.71,0,.05,0,.11,0,.16,0,4.6,3.73,8.33,8.33,8.33s8.33-3.73,8.33-8.33-3.73-8.33-8.33-8.33Z"/>
        </g>
      </g>
    </g>
  </g>
</svg>